<?xml version="1.0" encoding="UTF-8"?>
<svg xmlns="http://www.w3.org/2000/svg" width="131.599mm" height="32mm" version="1.1" viewBox="0 0 373.037 90.709">
  <!-- Generator: Adobe Illustrator 29.5.1, SVG Export Plug-In . SVG Version: 2.1.0 Build 141)  -->
  <g id="Schutzraum">
    <rect y="0" width="373.037" height="90.709" fill="none"/>
    <rect y="0" width="373.037" height="90.709" fill="none"/>
    <rect y="0" width="373.037" height="90.709" fill="none"/>
    <rect y="0" width="373.037" height="90.709" fill="none"/>
    <rect y="0" width="373.037" height="90.709" fill="none"/>
  </g>
  <g id="Logo">
    <g>
      <path d="M298.219,67.852h4.345v-9.113h2.323c1.75,0,2.505,1.026,2.566,2.716l.12,4.134c.03.844.121,1.659.543,2.263h4.707v-.181c-.814-.423-.935-1.599-.965-3.862-.06-4.557-.513-6.187-3.47-6.579v-.06c2.444-.513,3.591-2.444,3.591-5.311,0-3.682-2.173-5.553-5.734-5.553h-8.026v21.546ZM302.564,49.505h2.052c1.961,0,3.018.996,3.018,2.988,0,2.323-1.178,3.228-3.26,3.228h-1.81v-6.216Z" fill="#8ebae5"/>
      <path d="M234.156,46.307v15.027c0,5.764,3.349,6.941,6.88,6.941s6.88-1.448,6.88-6.941v-15.027h-4.345v15.027c0,2.143-.513,3.742-2.535,3.742s-2.535-1.599-2.535-3.742v-15.027h-4.345Z" fill="#8ebae5"/>
    </g>
    <polygon points="248.98 46.307 248.98 67.852 252.963 67.852 252.963 52.765 253.023 52.765 258.334 67.852 263.283 67.852 263.283 46.307 259.3 46.307 259.3 61.063 259.24 61.063 253.989 46.307 248.98 46.307" fill="#8ebae5"/>
    <rect x="264.4" y="46.307" width="4.345" height="21.545" fill="#8ebae5"/>
    <polygon points="269.043 46.307 273.991 67.852 279.574 67.852 284.522 46.307 280.026 46.307 276.828 62.24 276.738 62.24 273.69 46.307 269.043 46.307" fill="#8ebae5"/>
    <polygon points="284.91 46.307 284.91 67.852 297.252 67.852 297.252 64.292 289.255 64.292 289.255 58.498 296.498 58.498 296.498 54.937 289.255 54.937 289.255 49.868 296.95 49.868 296.95 46.307 284.91 46.307" fill="#8ebae5"/>
    <path d="M312.34,61.123v.875c0,3.984,1.931,6.277,6.85,6.277,4.707,0,7.483-2.052,7.483-6.609,0-2.625-.845-4.284-4.104-5.703l-3.349-1.448c-1.841-.785-2.233-1.599-2.233-2.927,0-1.267.513-2.505,2.474-2.505,1.659,0,2.354,1.177,2.354,3.199h4.164v-.604c0-4.134-2.807-5.793-6.669-5.793-4.104,0-6.668,2.142-6.668,6.336,0,3.591,1.78,5.191,5.642,6.518,2.867.996,3.863,1.72,3.863,3.682,0,1.81-1.268,2.655-2.595,2.655-2.294,0-2.867-1.297-2.867-3.319v-.634h-4.345Z" fill="#8ebae5"/>
    <rect x="327.241" y="46.307" width="4.345" height="21.545" fill="#8ebae5"/>
    <polygon points="354.156 46.307 351.138 54.635 351.078 54.635 348.242 46.307 332.156 46.307 332.156 49.868 336.863 49.868 336.863 67.852 341.209 67.852 341.209 49.868 344.874 49.868 348.935 59.373 348.935 67.852 353.281 67.852 353.281 59.373 358.864 46.307 354.156 46.307" fill="#8ebae5"/>
    <g>
      <path d="M195.985,44.347h-7.2v-21.641h11.807c3.202,0,5.963,2.072,6.864,4.82.834,2.546.121,5.312-1.761,7.281.25.678.494,1.209.726,1.818.523,1.205,1.001,2.41,1.524,3.6l1.713,4.122h-7.301s-.058-.174-.116-.247c-.29-.638-.552-1.321-.842-1.959l-1.756-4.166c-.697-1.684-1.394-3.275-2.09-4.958.869-.024,1.519.139,2.358-.247.59-.29,1.484-1.011,1.507-2.394-.023-.685-.213-1.204-.666-1.744-.455-.502-1.113-.874-1.97-.886,0,0-2.798,0-2.797,0v16.601Z" fill="#00549f"/>
      <path d="M271.19,22.706v21.641h-7.2v-8.824h-5.041v8.824c-1.306,0-2.714-.014-4.02,0h-3.18v-16.633h-5.036v16.633h-7.2v-16.633h-5.079v16.633h-7.417c-1.292-3.12-2.656-6.27-3.919-9.376-.145-.653-.29-1.307-.479-1.945v11.321h-7.432c-1.473-3.425-2.888-6.782-4.357-10.258-.509-1.204-.926-2.184-1.452-3.436l-.072-.164-1.144-2.685-1.638-3.835c-.144-.435-.376-.828-.522-1.263h7.415c1.524,3.701,3.062,7.359,4.659,11.002l.044.087c-.058-.421-.19-.958-.262-1.364v-6.459c.014-1.031,0-2.207,0-3.266h7.431c.094.236.146.363.218.552.871,2.046,1.699,4.078,2.57,6.11l1.945,4.427c-.044-.465-.146-.914-.204-1.364v-9.725h29.131v7.809h5.041v-7.809h7.2Z" fill="#00549f"/>
    </g>
    <path d="M292.075,36.193l2.092-9.73h.06l2.092,9.73h-4.244ZM277.648,36.193l2.091-9.73h.06l2.092,9.73h-4.243ZM296.895,22.704h-5.396l-4.516,17.059-4.516-17.059h-5.396l-5.729,21.643h4.547l1-4.577h5.761l.999,4.577h6.668l1-4.577h5.76l1,4.577h4.547l-5.729-21.643Z" fill="#8ebae5"/>
    <path d="M315.624,30.089c0-3.138-.452-7.695-6.669-7.695-6.517,0-7.333,4.647-7.333,11.195s.816,11.195,7.333,11.195c5.703,0,6.85-4.013,6.85-8.66h-4.345c0,4.647-1.147,5.462-2.716,5.462-1.871,0-2.776-1.177-2.776-7.695,0-6.095.513-8.298,2.716-8.298,1.961,0,2.595,1.358,2.595,4.496h4.345Z" fill="#8ebae5"/>
    <polygon points="316.663 44.347 321.027 44.347 321.027 34.739 326.119 34.739 326.119 44.347 330.484 44.347 330.484 22.706 326.119 22.706 326.119 30.981 321.027 30.981 321.027 22.706 316.663 22.706 316.663 44.347" fill="#8ebae5"/>
    <polygon points="331.43 22.702 331.43 44.347 343.83 44.347 343.83 40.77 335.796 40.77 335.796 34.949 343.072 34.949 343.072 31.372 335.796 31.372 335.796 26.279 343.526 26.279 343.526 22.702 331.43 22.702" fill="#8ebae5"/>
    <polygon points="344.478 22.706 344.478 44.347 348.479 44.347 348.479 29.192 348.539 29.192 353.874 44.347 358.845 44.347 358.845 22.706 354.844 22.706 354.844 37.527 354.783 37.527 349.509 22.706 344.478 22.706" fill="#8ebae5"/>
    <rect x="174.111" y="22.677" width="1" height="45.355" fill="#00549f"/>
    <rect x="37.025" y="21.519" width="8.714" height="8.714" transform="translate(-6.177 36.841) rotate(-45)" fill="#b8d698"/>
    <rect x="32.404" y="19.077" width="8.714" height="4.357" transform="translate(-4.263 32.219) rotate(-45)" fill="#407fb7"/>
    <rect x="33.042" y="22.422" width="4.357" height="13.072" transform="translate(-10.16 33.386) rotate(-45)" fill="#57ab27"/>
    <polygon points="32.14 28.957 29.059 25.876 38.302 16.633 35.221 13.552 22.897 25.876 29.059 32.038 32.14 28.957" fill="#8ebae5"/>
    <polygon points="44.463 28.957 47.544 25.876 38.301 16.633 41.382 13.552 53.706 25.876 47.544 32.038 44.463 28.957" fill="#bfd0d1"/>
    <polygon points="44.463 28.957 38.301 35.119 32.139 28.957 29.058 32.038 38.301 41.281 47.544 32.038 44.463 28.957" fill="#00549f"/>
    <rect x="28.421" y="27.945" width="4.357" height="17.429" transform="translate(-16.96 32.374) rotate(-45)" fill="#407fb7"/>
    <rect x="37.289" y="34.481" width="17.428" height="4.358" transform="translate(-12.448 43.267) rotate(-45)" fill="#c7ddf2"/>
    <g>
      <path d="M102.057,66.272v.19c0,.26.03.495.09.705.06.21.165.39.315.54s.351.265.605.345c.253.08.576.12.97.12.286,0,.553-.035.8-.105.246-.07.458-.175.635-.315.176-.14.315-.317.415-.53.1-.213.15-.46.15-.74,0-.407-.09-.728-.27-.965-.18-.237-.487-.428-.92-.575l-.83-.28c-.234-.073-.392-.163-.475-.27-.084-.107-.125-.227-.125-.36,0-.193.065-.338.195-.435.13-.097.281-.145.455-.145.226,0,.385.065.475.195.09.13.135.335.135.615h1.24v-.22c0-.487-.15-.863-.45-1.13-.3-.267-.764-.4-1.39-.4-.354,0-.655.043-.905.13s-.455.203-.615.35c-.16.147-.277.318-.35.515-.074.197-.11.405-.11.625,0,.38.096.692.29.935.193.243.48.432.86.565l.97.35c.133.053.25.125.35.215.1.09.15.222.15.395,0,.213-.064.373-.19.48-.127.107-.297.16-.51.16-.234,0-.412-.072-.535-.215-.124-.143-.185-.332-.185-.565v-.18h-1.24ZM98.751,64.732v-.21c0-.127.011-.253.035-.38.023-.127.061-.242.115-.345.053-.103.125-.187.215-.25.09-.063.205-.095.345-.095s.255.028.345.085c.09.057.16.14.21.25.05.11.085.243.105.4.02.157.033.338.04.545h-1.41ZM101.481,65.552v-.31c0-.413-.027-.788-.08-1.125-.054-.337-.154-.623-.3-.86-.147-.237-.349-.42-.605-.55-.257-.13-.585-.195-.985-.195-.467,0-.84.077-1.12.23-.28.153-.495.36-.645.62s-.25.557-.3.89c-.05.333-.075.68-.075,1.04,0,.333.015.672.045,1.015s.111.653.245.93c.133.277.34.502.62.675.28.173.67.26,1.17.26.66,0,1.143-.168,1.45-.505.306-.337.473-.818.5-1.445h-1.24c-.04.34-.114.593-.22.76-.107.167-.277.25-.51.25-.127,0-.234-.035-.32-.105-.087-.07-.157-.163-.21-.28-.054-.117-.092-.25-.115-.4-.024-.15-.035-.305-.035-.465v-.43h2.73ZM96.766,64.592c0-.64-.162-1.147-.485-1.52-.324-.373-.805-.56-1.445-.56-.32,0-.614.043-.88.13-.267.087-.497.238-.69.455-.194.217-.344.507-.45.87-.107.363-.16.822-.16,1.375,0,.54.043.992.13,1.355.086.363.215.653.385.87.17.217.383.372.64.465.256.093.558.14.905.14.733,0,1.258-.19,1.575-.57.316-.38.475-.923.475-1.63h-1.32c0,.44-.054.76-.16.96-.107.2-.277.3-.51.3-.154,0-.279-.035-.375-.105-.097-.07-.172-.182-.225-.335-.054-.153-.09-.348-.11-.585-.02-.237-.03-.522-.03-.855,0-.307.01-.577.03-.81.02-.233.056-.425.11-.575.053-.15.131-.263.235-.34.103-.077.241-.115.415-.115.126,0,.231.032.315.095.083.063.146.147.19.25.043.103.073.22.09.35.016.13.025.258.025.385h1.32ZM87.783,68.032h1.38v-3.57c0-.593.243-.89.73-.89.206,0,.356.055.45.165.093.11.14.305.14.585v3.71h1.38v-3.99c0-.54-.119-.93-.355-1.17-.237-.24-.575-.36-1.015-.36-.3,0-.567.062-.8.185-.234.123-.424.318-.57.585h-.02v-.63h-1.32v5.38ZM84.253,64.732v-.21c0-.127.011-.253.035-.38.023-.127.061-.242.115-.345.053-.103.125-.187.215-.25.09-.063.205-.095.345-.095s.255.028.345.085c.09.057.16.14.21.25.05.11.085.243.105.4.02.157.033.338.04.545h-1.41ZM86.983,65.552v-.31c0-.413-.027-.788-.08-1.125-.054-.337-.154-.623-.3-.86-.147-.237-.349-.42-.605-.55-.257-.13-.585-.195-.985-.195-.467,0-.84.077-1.12.23-.28.153-.495.36-.645.62s-.25.557-.3.89c-.05.333-.075.68-.075,1.04,0,.333.015.672.045,1.015.03.343.111.653.245.93.133.277.34.502.62.675s.67.26,1.17.26c.66,0,1.143-.168,1.45-.505.306-.337.473-.818.5-1.445h-1.24c-.04.34-.114.593-.22.76-.107.167-.277.25-.51.25-.127,0-.234-.035-.32-.105-.087-.07-.157-.163-.21-.28-.054-.117-.092-.25-.115-.4-.024-.15-.035-.305-.035-.465v-.43h2.73ZM80.646,68.032h1.38v-5.38h-1.38v5.38ZM80.646,61.992h1.38v-1.18h-1.38v1.18ZM79.825,64.592c0-.64-.162-1.147-.485-1.52-.323-.373-.805-.56-1.445-.56-.32,0-.613.043-.88.13-.267.087-.497.238-.69.455-.193.217-.343.507-.45.87-.107.363-.16.822-.16,1.375,0,.54.043.992.13,1.355.087.363.215.653.385.87.17.217.383.372.64.465.257.093.558.14.905.14.733,0,1.258-.19,1.575-.57.317-.38.475-.923.475-1.63h-1.32c0,.44-.053.76-.16.96s-.277.3-.51.3c-.153,0-.278-.035-.375-.105s-.172-.182-.225-.335-.09-.348-.11-.585c-.02-.237-.03-.522-.03-.855,0-.307.01-.577.03-.81.02-.233.057-.425.11-.575s.132-.263.235-.34c.103-.077.242-.115.415-.115.127,0,.232.032.315.095s.147.147.19.25c.043.103.073.22.09.35.017.13.025.258.025.385h1.32ZM70.337,65.802v.29c0,.66.175,1.172.525,1.535.35.363.932.545,1.745.545.78,0,1.388-.177,1.825-.53.437-.353.655-.907.655-1.66,0-.22-.02-.42-.06-.6-.04-.18-.112-.345-.215-.495-.103-.15-.243-.29-.42-.42-.177-.13-.398-.255-.665-.375l-1.11-.48c-.307-.127-.507-.265-.6-.415-.093-.15-.14-.335-.14-.555,0-.107.012-.21.035-.31s.067-.188.13-.265c.063-.077.148-.138.255-.185.107-.047.24-.07.4-.07.28,0,.48.092.6.275.12.183.18.445.18.785h1.38v-.2c0-.34-.055-.632-.165-.875s-.263-.443-.46-.6-.43-.27-.7-.34c-.27-.07-.565-.105-.885-.105-.687,0-1.227.173-1.62.52s-.59.873-.59,1.58c0,.293.037.552.11.775.073.223.188.42.345.59.157.17.352.318.585.445.233.127.51.243.83.35.24.08.442.158.605.235.163.077.295.162.395.255.1.093.172.198.215.315s.065.255.065.415c0,.3-.088.522-.265.665-.177.143-.375.215-.595.215-.193,0-.35-.027-.47-.08-.12-.053-.217-.127-.29-.22-.073-.093-.123-.208-.15-.345s-.04-.288-.04-.455v-.21h-1.44Z" fill="#00549f"/>
      <path d="M156.358,56.693h1.38v-3.57c0-.593.243-.89.73-.89.206,0,.356.055.45.165.093.11.14.305.14.585v3.71h1.38v-3.99c0-.54-.119-.93-.355-1.17-.237-.24-.575-.36-1.015-.36-.3,0-.567.062-.8.185-.234.123-.424.318-.57.585h-.02v-.63h-1.32v5.38ZM152.715,53.243c.013-.233.045-.433.095-.6s.123-.297.22-.39c.096-.093.231-.14.405-.14.28,0,.473.147.58.44.106.293.16.777.16,1.45s-.054,1.157-.16,1.45c-.107.293-.3.44-.58.44-.174,0-.309-.047-.405-.14-.097-.093-.17-.223-.22-.39s-.082-.367-.095-.6c-.014-.233-.02-.487-.02-.76s.006-.527.02-.76M151.415,55.243c.066.353.18.65.34.89.16.24.376.418.65.535.273.117.616.172,1.03.165.393,0,.725-.062.995-.185.27-.123.488-.303.655-.54.166-.237.286-.532.36-.885.073-.353.11-.76.11-1.22,0-.467-.034-.878-.1-1.235-.067-.357-.18-.655-.34-.895-.16-.24-.377-.418-.65-.535-.274-.117-.617-.172-1.03-.165-.394,0-.725.062-.995.185s-.489.303-.655.54c-.167.237-.287.532-.36.885-.074.353-.11.76-.11,1.22,0,.473.033.887.1,1.24M149.088,56.693h1.38v-5.38h-1.38v5.38ZM149.088,50.653h1.38v-1.18h-1.38v1.18ZM146.25,51.313h-.7v.94h.7v3.08c0,.273.016.5.05.68.033.18.095.325.185.435s.218.188.385.235c.166.047.386.07.66.07.16,0,.311-.007.455-.02.143-.013.291-.027.445-.04v-.96c-.047.007-.097.012-.15.015-.054.003-.107.005-.16.005-.2,0-.332-.045-.395-.135-.064-.09-.095-.242-.095-.455v-2.91h.8v-.94h-.8v-1.54h-1.38v1.54ZM143.599,55.063c0,.153-.027.282-.08.385-.053.103-.122.188-.205.255-.083.067-.175.115-.275.145-.1.03-.197.045-.29.045-.187,0-.32-.073-.4-.22-.08-.147-.12-.323-.12-.53,0-.24.06-.43.18-.57.12-.14.32-.24.6-.3.087-.02.183-.052.29-.095.107-.043.207-.102.3-.175v1.06ZM142.319,52.963v-.15c0-.213.053-.383.16-.51.107-.127.267-.19.48-.19.233,0,.398.058.495.175s.145.278.145.485c0,.18-.04.317-.12.41s-.223.167-.43.22l-.78.21c-.24.067-.445.143-.615.23-.17.087-.31.195-.42.325s-.192.287-.245.47c-.053.183-.08.402-.08.655,0,.18.023.362.07.545.047.183.12.348.22.495.1.147.233.267.4.36.167.093.37.14.61.14.333,0,.605-.047.815-.14.21-.093.395-.28.555-.56h.02c.02.093.042.188.065.285s.058.188.105.275h1.32c-.067-.16-.112-.31-.135-.45-.023-.14-.035-.337-.035-.59v-2.83c0-.24-.025-.462-.075-.665-.05-.203-.145-.378-.285-.525s-.338-.26-.595-.34c-.257-.08-.588-.12-.995-.12-.26,0-.505.028-.735.085-.23.057-.43.15-.6.28s-.305.302-.405.515c-.1.213-.15.473-.15.78v.13h1.24ZM138.705,56.693h1.38v-7.14h-1.38v7.14ZM136.382,56.693h1.32v-5.38h-1.38v3.57c0,.593-.243.89-.73.89-.207,0-.357-.055-.45-.165s-.14-.305-.14-.585v-3.71h-1.38v3.99c0,.54.118.93.355,1.17.237.24.575.36,1.015.36.3,0,.567-.062.8-.185.233-.123.423-.318.57-.585h.02v.63ZM126,56.693h1.38v-3.54c0-.32.065-.553.195-.7.13-.147.305-.22.525-.22.193,0,.332.06.415.18.083.12.125.293.125.52v3.76h1.38v-3.54c0-.32.065-.553.195-.7s.305-.22.525-.22c.193,0,.332.06.415.18.083.12.125.293.125.52v3.76h1.38v-3.91c0-.52-.108-.918-.325-1.195-.217-.277-.555-.415-1.015-.415-.327,0-.608.072-.845.215-.237.143-.408.358-.515.645h-.02c-.073-.28-.218-.493-.435-.64-.217-.147-.485-.22-.805-.22-.3,0-.558.053-.775.16-.217.107-.412.283-.585.53h-.02v-.55h-1.32v5.38ZM123.617,56.693h1.38v-5.38h-1.38v5.38ZM123.617,50.653h1.38v-1.18h-1.38v1.18ZM118.075,54.463v.29c0,.66.175,1.172.525,1.535.35.363.932.545,1.745.545.78,0,1.389-.177,1.825-.53.437-.353.655-.907.655-1.66,0-.22-.02-.42-.06-.6s-.111-.345-.215-.495c-.103-.15-.243-.29-.42-.42-.176-.13-.398-.255-.665-.375l-1.11-.48c-.306-.127-.506-.265-.6-.415-.093-.15-.14-.335-.14-.555,0-.107.012-.21.035-.31.024-.1.067-.188.13-.265.064-.077.149-.138.255-.185.107-.047.24-.07.4-.07.28,0,.48.092.6.275.12.183.18.445.18.785h1.38v-.2c0-.34-.055-.632-.165-.875s-.263-.443-.46-.6c-.196-.157-.43-.27-.7-.34-.27-.07-.565-.105-.885-.105-.686,0-1.226.173-1.62.52-.393.347-.59.873-.59,1.58,0,.293.037.552.11.775.074.223.189.42.345.59.157.17.352.318.585.445.234.127.51.243.83.35.24.08.442.158.605.235.164.077.295.162.395.255.1.093.172.198.215.315.044.117.065.255.065.415,0,.3-.088.522-.265.665-.176.143-.375.215-.595.215-.193,0-.35-.027-.47-.08-.12-.053-.216-.127-.29-.22-.073-.093-.123-.208-.15-.345-.026-.137-.04-.288-.04-.455v-.21h-1.44ZM111.711,50.583c.116-.1.261-.15.435-.15.186,0,.338.052.455.155.116.103.175.252.175.445,0,.127-.035.255-.105.385-.07.13-.185.262-.345.395l-.26.22-.17-.24c-.24-.32-.36-.58-.36-.78,0-.187.058-.33.175-.43M112.956,55.263c-.24.3-.55.45-.93.45-.16,0-.304-.028-.43-.085-.127-.057-.232-.13-.315-.22-.084-.09-.147-.19-.19-.3-.044-.11-.065-.222-.065-.335,0-.22.051-.423.155-.61.103-.187.295-.387.575-.6l1.2,1.7ZM112.716,52.893c.42-.3.731-.593.935-.88.203-.287.305-.61.305-.97,0-.207-.035-.4-.105-.58s-.179-.338-.325-.475c-.147-.137-.332-.243-.555-.32-.224-.077-.489-.115-.795-.115-.267,0-.512.035-.735.105-.224.07-.415.17-.575.3-.16.13-.285.288-.375.475-.09.187-.135.393-.135.62,0,.1.006.197.02.29.013.093.036.19.07.29.033.1.081.207.145.32.063.113.145.243.245.39l.25.37c-.447.28-.799.588-1.055.925-.257.337-.385.715-.385,1.135,0,.2.03.42.09.66s.17.463.33.67c.16.207.381.38.665.52.283.14.651.21,1.105.21.36,0,.691-.062.995-.185.303-.123.545-.292.725-.505l.4.55h1.53l-.94-1.32c.213-.307.388-.638.525-.995.136-.357.205-.728.205-1.115h-1.24c0,.153-.024.333-.07.54-.047.207-.107.387-.18.54l-1.07-1.45ZM105.296,51.313v.6h-.02c-.134-.28-.304-.473-.51-.58-.207-.107-.407-.16-.6-.16-.374,0-.672.083-.895.25-.224.167-.394.382-.51.645-.117.263-.194.558-.23.885-.037.327-.055.647-.055.96,0,.98.138,1.678.415,2.095.276.417.688.625,1.235.625.22,0,.431-.06.635-.18.203-.12.375-.28.515-.48h.02v.71c0,.28-.057.512-.17.695-.114.183-.31.275-.59.275-.087,0-.169-.013-.245-.04-.077-.027-.149-.063-.215-.11-.14-.1-.21-.237-.21-.41h-1.32c0,.46.158.815.475,1.065.316.25.768.375,1.355.375.806,0,1.381-.172,1.725-.515.343-.343.515-.875.515-1.595v-5.11h-1.32ZM103.881,53.258c.016-.25.051-.45.105-.6.053-.15.126-.258.22-.325.093-.067.216-.1.37-.1.273,0,.461.137.565.41.103.273.155.737.155,1.39,0,.227-.012.435-.035.625-.024.19-.064.352-.12.485-.057.133-.134.238-.23.315-.097.077-.219.115-.365.115-.147,0-.265-.038-.355-.115-.09-.077-.16-.18-.21-.31-.05-.13-.084-.278-.1-.445-.017-.167-.025-.343-.025-.53,0-.36.008-.665.025-.915M97.545,56.693h1.38v-3.57c0-.593.243-.89.73-.89.206,0,.356.055.45.165.093.11.14.305.14.585v3.71h1.38v-3.99c0-.54-.119-.93-.355-1.17-.237-.24-.575-.36-1.015-.36-.3,0-.567.062-.8.185-.234.123-.424.318-.57.585h-.02v-.63h-1.32v5.38ZM95.162,56.693h1.38v-5.38h-1.38v5.38ZM95.162,50.653h1.38v-1.18h-1.38v1.18ZM92.755,56.693h1.38v-7.14h-1.38v7.14ZM89.193,53.393v-.21c0-.127.011-.253.035-.38.023-.127.061-.242.115-.345.053-.103.125-.187.215-.25.09-.063.205-.095.345-.095s.255.028.345.085c.09.057.16.14.21.25s.085.243.105.4c.02.157.033.338.04.545h-1.41ZM91.923,54.213v-.31c0-.413-.027-.788-.08-1.125-.054-.337-.154-.623-.3-.86-.147-.237-.349-.42-.605-.55-.257-.13-.585-.195-.985-.195-.467,0-.84.077-1.12.23s-.495.36-.645.62c-.15.26-.25.557-.3.89s-.075.68-.075,1.04c0,.333.015.672.045,1.015s.111.653.245.93c.133.277.34.502.62.675s.67.26,1.17.26c.66,0,1.143-.168,1.45-.505.306-.337.473-.818.5-1.445h-1.24c-.04.34-.114.593-.22.76-.107.167-.277.25-.51.25-.127,0-.234-.035-.32-.105-.087-.07-.157-.163-.21-.28-.054-.117-.092-.25-.115-.4-.024-.15-.035-.305-.035-.465v-.43h2.73ZM84.302,52.678c.09-.297.285-.445.585-.445.306,0,.505.148.595.445.09.297.135.738.135,1.325s-.045,1.028-.135,1.325c-.09.297-.289.445-.595.445-.3,0-.495-.148-.585-.445-.09-.297-.135-.738-.135-1.325s.045-1.028.135-1.325M85.677,56.693h1.32v-7.14h-1.38v2.26h-.02c-.147-.213-.312-.373-.495-.48-.184-.107-.405-.16-.665-.16-.567,0-.984.222-1.25.665-.267.443-.4,1.165-.4,2.165s.133,1.722.4,2.165c.266.443.683.665,1.25.665.28,0,.515-.055.705-.165.19-.11.361-.292.515-.545h.02v.57ZM79.269,53.243c.013-.233.045-.433.095-.6.05-.167.123-.297.22-.39.096-.093.231-.14.405-.14.28,0,.473.147.58.44.106.293.16.777.16,1.45s-.054,1.157-.16,1.45c-.107.293-.3.44-.58.44-.174,0-.309-.047-.405-.14-.097-.093-.17-.223-.22-.39-.05-.167-.082-.367-.095-.6-.014-.233-.02-.487-.02-.76s.006-.527.02-.76M77.969,55.243c.066.353.18.65.34.89.16.24.376.418.65.535.273.117.616.172,1.03.165.393,0,.725-.062.995-.185.27-.123.488-.303.655-.54.166-.237.286-.532.36-.885.073-.353.11-.76.11-1.22,0-.467-.034-.878-.1-1.235-.067-.357-.18-.655-.34-.895-.16-.24-.377-.418-.65-.535-.274-.117-.617-.172-1.03-.165-.394,0-.725.062-.995.185-.27.123-.489.303-.655.54-.167.237-.287.532-.36.885-.074.353-.11.76-.11,1.22,0,.473.033.887.1,1.24M70.647,56.693h1.32v-5.7h.02l1.27,5.7h1.12l1.27-5.7h.02v5.7h1.32v-7.14h-2.13l-1.03,5.04h-.02l-1.02-5.04h-2.14v7.14Z" fill="#00549f"/>
      <path d="M115.526,43.724c0,.153-.026.282-.08.385-.053.103-.121.188-.205.255-.083.067-.175.115-.275.145-.1.03-.196.045-.29.045-.186,0-.32-.073-.4-.22-.08-.147-.12-.323-.12-.53,0-.24.06-.43.18-.57.12-.14.32-.24.6-.3.087-.02.184-.052.29-.095.107-.043.207-.102.3-.175v1.06ZM114.246,41.624v-.15c0-.213.054-.383.16-.51.107-.127.267-.19.48-.19.234,0,.399.058.495.175.097.117.145.278.145.485,0,.18-.04.317-.12.41-.08.093-.223.167-.43.22l-.78.21c-.24.067-.445.143-.615.23-.17.087-.31.195-.42.325-.11.13-.191.287-.245.47-.053.183-.08.402-.08.655,0,.18.024.362.07.545.047.183.12.348.22.495s.234.267.4.36c.167.093.37.14.61.14.334,0,.605-.047.815-.14s.395-.28.555-.56h.02c.02.093.042.188.065.285.024.097.059.188.105.275h1.32c-.066-.16-.111-.31-.135-.45-.023-.14-.035-.337-.035-.59v-2.83c0-.24-.025-.462-.075-.665-.05-.203-.145-.378-.285-.525-.14-.147-.338-.26-.595-.34-.256-.08-.588-.12-.995-.12-.26,0-.505.028-.735.085-.23.057-.43.15-.6.28-.17.13-.305.302-.405.515s-.15.473-.15.78v.13h1.24ZM109.525,42.054v-.21c0-.127.012-.253.035-.38.024-.127.062-.242.115-.345.054-.103.125-.187.215-.25.09-.063.205-.095.345-.095s.255.028.345.085c.09.057.16.14.21.25.05.11.085.243.105.4.02.157.034.338.04.545h-1.41ZM112.255,42.874v-.31c0-.413-.026-.788-.08-1.125-.053-.337-.153-.623-.3-.86-.146-.237-.348-.42-.605-.55-.256-.13-.585-.195-.985-.195-.466,0-.84.077-1.12.23-.28.153-.495.36-.645.62-.15.26-.25.557-.3.89-.05.333-.075.68-.075,1.04,0,.333.015.672.045,1.015.03.343.112.653.245.93.134.277.34.502.62.675.28.173.67.26,1.17.26.66,0,1.144-.168,1.45-.505.307-.337.474-.818.5-1.445h-1.24c-.04.34-.113.593-.22.76-.106.167-.276.25-.51.25-.126,0-.233-.035-.32-.105-.086-.07-.156-.163-.21-.28-.053-.117-.091-.25-.115-.4-.023-.15-.035-.305-.035-.465v-.43h2.73ZM104.868,45.354h1.38v-3.23c0-.18.03-.332.09-.455.059-.123.14-.223.24-.3.099-.077.209-.132.33-.165.12-.033.239-.05.36-.05.073,0,.144.002.215.005.069.003.141.008.215.015v-1.32c-.04-.007-.082-.012-.125-.015-.044-.003-.085-.005-.125-.005-.287,0-.53.078-.73.235-.2.157-.371.365-.511.625h-.019v-.72h-1.32v5.38ZM98.685,45.354h1.5l.33-1.51h1.9l.329,1.51h1.501l-1.89-7.14h-1.78l-1.89,7.14ZM101.455,39.454h.02l.69,3.21h-1.4l.69-3.21ZM93.295,42.054v-.21c0-.127.011-.253.035-.38.023-.127.061-.242.115-.345.053-.103.125-.187.215-.25.09-.063.205-.095.345-.095s.255.028.345.085c.09.057.16.14.21.25.05.11.085.243.105.4.02.157.033.338.04.545h-1.41ZM96.025,42.874v-.31c0-.413-.027-.788-.08-1.125-.054-.337-.154-.623-.3-.86-.147-.237-.349-.42-.605-.55-.257-.13-.585-.195-.985-.195-.467,0-.84.077-1.12.23s-.495.36-.645.62c-.15.26-.25.557-.3.89-.05.333-.075.68-.075,1.04,0,.333.015.672.045,1.015.03.343.111.653.245.93.133.277.34.502.62.675s.67.26,1.17.26c.66,0,1.143-.168,1.45-.505.306-.337.473-.818.5-1.445h-1.24c-.04.34-.114.593-.22.76-.107.167-.277.25-.51.25-.127,0-.234-.035-.32-.105-.087-.07-.157-.163-.21-.28-.054-.117-.092-.25-.115-.4-.024-.15-.035-.305-.035-.465v-.43h2.73ZM89.688,45.354h1.38v-7.14h-1.38v7.14ZM87.245,45.354h1.38v-5.38h-1.38v5.38ZM87.245,39.314h1.38v-1.18h-1.38v1.18ZM84.515,45.354h1.38v-4.44h.8v-.94h-.8v-.47c0-.153.04-.263.12-.33.08-.067.216-.1.41-.1h.13c.06,0,.106.003.14.01v-.98c-.254-.02-.5-.03-.74-.03-.22,0-.42.022-.6.065s-.332.115-.455.215c-.124.1-.219.233-.285.4-.067.167-.1.37-.1.61v.61h-.7v.94h.7v4.44ZM80.511,41.904c.013-.233.045-.433.095-.6s.123-.297.22-.39c.096-.093.231-.14.405-.14.28,0,.473.147.58.44.106.293.16.777.16,1.45s-.054,1.157-.16,1.45c-.107.293-.3.44-.58.44-.174,0-.309-.047-.405-.14-.097-.093-.17-.223-.22-.39s-.082-.367-.095-.6c-.014-.233-.02-.487-.02-.76s.006-.527.02-.76M79.211,43.904c.066.353.18.65.34.89.16.24.376.418.65.535.273.117.616.172,1.03.165.393,0,.725-.062.995-.185.27-.123.488-.303.655-.54.166-.237.286-.532.36-.885.073-.353.11-.76.11-1.22,0-.467-.034-.878-.1-1.235-.067-.357-.18-.655-.34-.895-.16-.24-.377-.418-.65-.535-.274-.117-.617-.172-1.03-.165-.394,0-.725.062-.995.185-.27.123-.489.303-.655.54-.167.237-.287.532-.36.885-.074.353-.11.76-.11,1.22,0,.473.033.887.1,1.24M75.828,45.354h1.38v-3.23c0-.18.03-.332.09-.455.06-.123.14-.223.24-.3s.21-.132.33-.165c.12-.033.24-.05.36-.05.073,0,.145.002.215.005.07.003.142.008.215.015v-1.32c-.04-.007-.082-.012-.125-.015-.043-.003-.085-.005-.125-.005-.287,0-.53.078-.73.235-.2.157-.37.365-.51.625h-.02v-.72h-1.32v5.38ZM70.617,45.354h1.44v-2.85h.77c.34,0,.65-.043.93-.13.28-.087.518-.217.715-.39.197-.173.35-.395.46-.665.11-.27.165-.592.165-.965,0-.267-.033-.528-.1-.785s-.177-.485-.33-.685c-.153-.2-.355-.362-.605-.485-.25-.123-.558-.185-.925-.185h-2.52v7.14ZM72.057,39.274h.6c.36,0,.617.093.77.28s.23.46.23.82c0,.367-.088.637-.265.81-.177.173-.408.26-.695.26h-.64v-2.17Z" fill="#00549f"/>
      <path d="M62.642,51.957c-.041-2.026-.542-3.54-1.504-4.543-.963-1.003-2.487-1.504-4.573-1.504-1.378,0-2.482.218-3.313.653-.831.436-1.473.968-1.929,1.595-.456.629-.755,1.282-.897,1.961-.142.678-.212,1.271-.212,1.777,0,.993.147,1.823.443,2.492.295.668.682,1.221,1.161,1.656.479.436,1.029.79,1.651,1.064.621.273,1.253.521,1.895.744.642.223,1.274.441,1.895.653.622.213,1.172.487,1.651.821s.866.744,1.162,1.231c.295.486.443,1.114.443,1.884,0,.587-.096,1.114-.289,1.58-.192.466-.456.866-.79,1.2s-.734.593-1.2.775c-.466.182-.963.274-1.489.274-.972,0-1.732-.147-2.279-.441-.547-.294-.953-.684-1.216-1.17s-.425-1.028-.486-1.626c-.061-.597-.091-1.2-.091-1.808h-2.735c0,1.155.106,2.183.319,3.085.213.901.567,1.656,1.064,2.263.496.608,1.164,1.074,2.005,1.398s1.9.486,3.176.486c.769,0,1.554-.101,2.355-.303.8-.203,1.524-.547,2.173-1.034.648-.486,1.179-1.144,1.595-1.975.415-.83.623-1.873.623-3.13,0-1.316-.255-2.35-.765-3.099-.509-.75-1.146-1.337-1.91-1.763-.764-.425-1.589-.764-2.476-1.018-.887-.253-1.712-.542-2.476-.866-.764-.324-1.401-.759-1.911-1.306-.509-.547-.764-1.327-.764-2.34,0-1.155.309-2.031.927-2.629.618-.597,1.504-.896,2.659-.896.628,0,1.16.096,1.596.288.435.193.784.456,1.048.79.263.335.451.74.562,1.216.111.476.167.998.167,1.565h2.735ZM47.448,51.957c-.041-2.026-.542-3.54-1.504-4.543-.962-1.003-2.487-1.504-4.573-1.504-1.378,0-2.482.218-3.312.653-.831.436-1.474.968-1.93,1.595-.456.629-.755,1.282-.897,1.961-.141.678-.212,1.271-.212,1.777,0,.993.147,1.823.443,2.492.295.668.683,1.221,1.162,1.656.478.436,1.029.79,1.65,1.064.622.273,1.254.521,1.895.744.642.223,1.274.441,1.895.653.622.213,1.172.487,1.651.821s.866.744,1.162,1.231c.295.486.443,1.114.443,1.884,0,.587-.096,1.114-.289,1.58-.192.466-.455.866-.79,1.2-.334.334-.734.593-1.2.775-.466.182-.962.274-1.489.274-.972,0-1.732-.147-2.279-.441s-.952-.684-1.215-1.17c-.264-.486-.426-1.028-.487-1.626-.06-.597-.091-1.2-.091-1.808h-2.735c0,1.155.107,2.183.319,3.085.213.901.567,1.656,1.064,2.263.496.608,1.165,1.074,2.005,1.398.841.324,1.9.486,3.176.486.77,0,1.555-.101,2.355-.303.8-.203,1.524-.547,2.173-1.034.648-.486,1.18-1.144,1.595-1.975.415-.83.623-1.873.623-3.13,0-1.316-.255-2.35-.764-3.099-.51-.75-1.147-1.337-1.911-1.763-.764-.425-1.589-.764-2.476-1.018-.887-.253-1.712-.542-2.476-.866-.764-.324-1.401-.759-1.91-1.306-.51-.547-.764-1.327-.764-2.34,0-1.155.308-2.031.926-2.629.618-.597,1.505-.896,2.659-.896.628,0,1.16.096,1.596.288.435.193.785.456,1.048.79.263.335.451.74.562,1.216.111.476.167.998.167,1.565h2.735ZM14.174,68.032h2.735v-18.962h.061l4.801,18.962h2.735l4.801-18.962h.061v18.962h2.735v-21.697h-4.589l-4.346,17.2h-.061l-4.345-17.2h-4.588v21.697Z" fill="#646567"/>
    </g>
  </g>
</svg>